<?xml version="1.0" encoding="UTF-8"?> <svg xmlns="http://www.w3.org/2000/svg" width="180" height="90" viewBox="0 0 180 90" fill="none"><g clip-path="url(#clip0_2048_12161)"><path d="M84.7924 60.6472C85.7427 57.82 86.1228 55.076 86.0658 52.1241C85.7427 52.6022 85.4196 53.0803 85.0775 53.5377C83.2719 55.8659 81.1433 57.3003 78.1783 57.3003C75.3275 57.3003 73.5029 55.2215 73.3889 52.2904C73.2938 50.1284 73.4459 47.9456 73.5599 45.7629C73.769 41.7507 73.3319 37.9257 71.0321 34.5996C69.3406 32.1466 66.8319 31.1072 64.095 31.8348C63.4868 32.0011 62.8786 32.1882 62.2705 32.396C61.5672 32.6455 60.826 32.9989 60.2558 32.2713C59.6667 31.5437 60.1418 30.7538 60.4459 30.047C61.3582 27.9058 62.8026 26.3051 64.6082 25.0786C68.4854 22.4385 72.5146 22.3553 76.5248 24.5381C79.7368 26.2635 81.4474 29.3817 82.3596 33.0613C83.2719 36.6576 83.0819 40.3163 82.7968 43.9751C82.6827 45.555 82.6257 47.1557 82.6447 48.7356C82.6447 49.1929 82.9298 49.9621 83.2149 50.0452C83.633 50.1908 84.2792 49.9829 84.6593 49.6503C85.6857 48.7564 86.1798 47.4467 86.4269 46.0747C86.6359 44.8274 86.655 43.5385 86.769 42.2912C86.959 40.2332 87.1111 38.1752 87.3582 36.1379C87.4342 35.4727 87.7003 34.8075 87.9664 34.1838C88.7456 32.4376 89.981 31.2943 91.7865 31.1903C93.231 31.0864 94.6754 31.1903 96.2149 31.1903C96.1199 33.6433 96.0629 36.0548 95.9488 38.487C95.8348 40.9192 95.6827 43.3722 95.5117 45.8044C95.1316 50.8768 94.5804 55.9283 92.9079 60.7512C92.6798 61.3956 92.4517 62.0192 92.1667 62.7884C94.1433 63.6199 96.0058 63.3497 97.7924 62.4558C98.8567 61.9153 99.3129 60.2522 98.9327 58.9842C98.8947 58.8386 98.8377 58.6723 98.7427 58.5476C97.6403 57.134 98.1345 55.8036 98.9327 54.5147C99.3889 53.7663 99.845 53.0179 100.377 52.3319C104.045 47.7377 109.709 49.0474 112.37 53.5792C114.632 57.4043 113.776 62.1024 110.336 64.8464C107.561 67.05 104.406 68.1102 101.042 68.6923C97.4503 69.3159 94.0102 68.4428 90.5702 67.4865C89.4868 67.1955 88.6506 67.2371 87.6243 67.9439C82.8348 71.27 77.6652 71.8729 72.3055 69.8772C71.0892 69.4199 69.9868 68.5675 68.9415 67.7152C68.2763 67.1539 67.7061 66.3432 67.307 65.5325C66.1857 63.2873 66.8509 61.1046 68.9035 59.8781C70.424 58.9634 72.0965 58.6723 73.807 58.61C76.7529 58.506 79.5848 59.192 82.3976 60.0028C83.1389 60.2107 83.8801 60.4186 84.7924 60.668V60.6472ZM82.7207 64.6178C80.307 63.7655 78.0073 63.1834 75.6126 63.2873C74.8333 63.3289 74.0921 63.5368 73.636 64.3891C74.0541 65.7819 75.1184 66.26 76.2207 66.4056C78.4824 66.6966 80.6681 66.364 82.7207 64.6386V64.6178Z" fill="#72ADE8"></path><path d="M54.0792 48.4446C55.1245 47.5715 55.5046 46.5529 55.9228 45.5551C56.8351 43.3307 57.8044 41.1272 59.2298 39.2147C60.5222 37.4477 62.0427 36.0133 64.1143 35.4104C65.9579 34.8699 67.4593 35.4312 68.6947 36.9695C69.607 38.1129 70.1582 39.5057 70.3292 40.9817C70.8424 45.2848 70.7663 49.5672 69.683 53.7664C69.0748 56.0947 67.9345 57.9864 65.9959 59.2961C65.2166 59.8158 64.4944 60.481 63.7152 61.0007C62.993 61.4996 62.1947 62.2064 61.3204 61.6036C60.5412 61.0839 60.5222 60.0652 60.5602 59.1506C60.6742 57.1965 60.8263 55.2424 60.9973 53.2883C61.2064 50.96 61.4725 48.6525 61.6815 46.3242C61.7386 45.5759 61.8336 44.7443 61.2254 44.0375C60.4272 44.5364 60.047 45.3472 59.7049 46.1371C58.3935 49.2138 57.1011 52.2905 55.8658 55.3879C55.1435 57.2173 54.2313 58.8803 52.7108 60.0652C50.069 62.1233 47.066 61.957 46.4389 57.2588C46.3058 56.2194 46.3248 55.1384 46.4008 54.0782C46.6099 51.3342 46.876 48.5901 47.1231 45.8461C47.1611 45.3264 47.1231 44.8067 46.933 44.2246C46.8 44.7028 46.6479 45.1601 46.5339 45.6382C45.6786 48.798 44.7283 51.8955 43.3789 54.8474C42.2766 57.3212 40.6801 59.2545 38.7035 60.9799C37.4871 62.0401 36.2517 62.8301 34.7883 63.2458C32.5836 63.8903 30.4739 63.62 28.4783 62.3727C25.4374 60.4394 24.107 55.8452 25.6465 52.3736C27.1859 48.8812 30.702 48.1536 33.5909 49.7335C34.1421 50.0245 34.4082 50.4403 34.2181 51.1471C34.1041 51.5421 34.047 51.9786 34.028 52.3944C34.009 53.8496 34.7122 54.5564 36.0427 54.3693C37.221 54.203 38.0383 53.3922 38.7605 52.4152C40.9272 49.5048 42.0105 46.054 42.7707 42.4784C43.3409 39.7136 43.607 36.928 43.3979 34.1008C43.3599 33.4771 43.2649 32.8327 43.0938 32.2298C42.4666 29.8392 40.262 29.2363 38.6465 31.0033C38.0003 31.7101 37.278 32.3753 36.6698 33.1237C35.4725 34.5789 35.4725 35.7015 36.5938 37.2398C37.069 37.905 37.6201 38.5079 38.0763 39.2147C38.7225 40.2333 38.7415 41.2935 38.0763 42.3329C36.8979 44.2246 35.3014 45.5966 33.3058 46.3242C30.9111 47.1973 28.6684 46.2411 27.357 43.7673C25.6845 40.6283 25.7795 37.3645 27.1479 34.1631C28.7064 30.4836 31.5193 28.2801 34.8453 26.8041C36.2327 26.2012 37.6962 25.8063 39.1786 25.4944C43.6658 24.4612 48.5481 27.0559 50.9813 30.6915C52.5777 33.0613 53.3 35.8262 53.509 38.7157C53.6991 41.3143 53.6991 43.9128 53.8131 46.5113C53.8321 47.1142 53.9652 47.6963 54.0792 48.4862V48.4446Z" fill="#72ADE8"></path><path d="M100.282 46.075V43.2894C101.518 43.6428 102.696 44.0586 103.912 44.2664C104.559 44.3912 105.281 44.2664 105.908 44.0586C107.371 43.6012 107.752 41.9797 106.63 40.8572C106.003 40.2335 105.148 39.8801 104.406 39.402C103.38 38.7368 102.24 38.1963 101.347 37.344C99.3319 35.4314 99.636 31.8351 101.86 30.1928C102.107 30.0265 102.354 29.8602 102.62 29.7563C105.015 28.7584 107.428 28.8832 109.899 29.6315V32.7082C109.006 32.3964 108.208 31.9806 107.371 31.8767C106.478 31.7727 105.509 31.7935 104.654 32.0845C103.171 32.5627 102.924 34.2049 104.14 35.2859C104.73 35.8056 105.471 36.1175 106.155 36.5332C107.124 37.1153 108.151 37.6142 109.044 38.3418C110.564 39.5891 110.944 41.3769 110.564 43.331C110.26 44.8901 109.329 45.9503 107.942 46.47C105.357 47.4262 102.81 47.2184 100.282 46.0958V46.075Z" fill="white"></path><path d="M139.206 40.1505C140.765 42.3748 142.228 44.4744 143.863 46.8235C142.589 46.9067 141.506 46.9067 140.442 46.8235C140.137 46.8027 139.833 46.3454 139.624 46.0336C138.56 44.4536 137.534 42.8737 136.279 40.9404C136.032 43.1024 136.241 44.911 136.108 46.7819H133.181V28.3428H136.165V39.3605C136.279 39.4021 136.374 39.4437 136.488 39.4853C137.648 37.7598 138.807 36.0344 139.966 34.2882H143.558C142.038 36.3255 140.651 38.1964 139.206 40.1505Z" fill="white"></path><path d="M126.947 38.8822C126.776 37.1568 126.358 36.6579 125.123 36.5747C123.735 36.4708 122.462 36.9073 121.189 37.8428C120.885 36.9697 121.056 36.1382 121.037 35.2443C123.013 34.1633 125.066 33.7683 127.213 34.3296C128.81 34.7453 129.836 36.1797 129.893 38.217C129.988 41.065 129.912 43.9337 129.912 46.8857H127.137C127.08 46.4283 127.023 45.9918 126.966 45.4721C126.852 45.5344 126.7 45.5344 126.643 45.6176C125.541 47.0935 124.154 47.5509 122.5 47.1351C120.961 46.7401 120.029 45.5552 119.896 43.9337C119.744 42.1459 120.371 40.6284 121.816 40.0255C122.975 39.5474 124.23 39.3811 125.465 39.0901C125.94 38.9861 126.415 38.9654 126.985 38.903L126.947 38.8822ZM127.042 40.7323C125.959 40.9818 124.933 41.1065 123.982 41.4391C123.146 41.7302 122.766 42.6864 122.994 43.4764C123.241 44.2871 123.982 44.7653 124.838 44.6405C126.453 44.3911 127.118 43.3101 127.042 40.7531V40.7323Z" fill="white"></path><path d="M154.981 41.4806H147.512C147.474 43.2268 148.101 44.1207 149.526 44.4949C151.066 44.8899 152.491 44.4949 153.974 43.7257V46.158C152.225 47.135 150.382 47.3013 148.5 46.9687C147.322 46.7608 146.371 46.0748 145.573 45.0562C144.053 43.0813 143.825 37.9674 146.124 35.6599C147.854 33.9345 149.849 33.685 151.94 34.4542C153.879 35.1818 154.772 36.9072 154.981 39.0692C155.057 39.7968 154.981 40.5451 154.981 41.4806ZM152.016 39.2147C151.959 37.323 151.389 36.4707 150.192 36.3459C148.766 36.2004 147.74 37.2606 147.455 39.2147H152.016Z" fill="white"></path><path d="M116.057 30.5459V34.2046H118.623V36.8032C117.882 36.8447 117.083 36.8863 116.152 36.9487C116.152 39.0483 116.095 41.1063 116.171 43.1643C116.209 44.2038 116.665 44.5156 117.635 44.5156C117.958 44.5156 118.281 44.4324 118.661 44.3909V46.6776C117.425 47.322 116.171 47.2804 114.974 46.8231C113.605 46.3034 113.111 45.0353 113.054 43.5593C112.997 42.021 113.016 40.4827 112.997 38.9443C112.997 38.3207 112.997 37.6763 112.997 36.9902C112.408 36.9279 111.876 36.8863 111.268 36.8447V34.3294C111.781 34.2878 112.313 34.267 112.959 34.2254V31.5437C114.023 31.2111 114.974 30.9201 116.038 30.5875L116.057 30.5459Z" fill="white"></path></g><defs><clipPath id="clip0_2048_12161"><rect width="130" height="48" fill="white" transform="translate(25 23)"></rect></clipPath></defs></svg> 