<svg fill="none" height="90" viewBox="0 0 180 90" width="180" xmlns="http://www.w3.org/2000/svg" xmlns:xlink="http://www.w3.org/1999/xlink"><clipPath id="a"><path d="m20 34h140v21h-140z"/></clipPath><g clip-path="url(#a)"><path d="m55.0893 55c-1.7974-.0265-3.5672-.1924-5.2853-.7166-.9314-.2853-1.8043-.6834-2.577-1.264-1.6491-1.2374-2.3701-2.9194-2.2114-4.8701.3036-3.7322 1.787-6.9635 4.7919-9.445 1.8353-1.5162 3.988-2.4252 6.3271-2.9361 3.0117-.6535 6.0338-.7099 9.0594-.0696.9694.2057 1.9009.5275 2.7599 1.0151 1.9457 1.1048 3.067 2.7503 2.9669 4.9233-.238 5.1123-2.5564 9.0701-7.3414 11.5218-1.9561 1.0052-4.0846 1.5028-6.2857 1.7019-.7313.0663-1.4696.0962-2.2044.1426zm10.015-13.436c0-.1858.0103-.3749 0-.5607-.1725-2.4749-1.8354-4.0109-4.4159-4.0772-1.4489-.0365-2.7461.4113-3.9397 1.1644-1.1903.7465-2.1252 1.7384-2.8945 2.8763-1.2075 1.7882-1.9906 3.7455-2.477 5.819-.2346 1.0052-.3278 2.0237-.1311 3.0554.2898 1.5327 1.1212 2.6408 2.6805 3.1749.9143.3119 1.8595.3749 2.8117.2123 1.8146-.3052 3.2739-1.2175 4.4987-2.5014 1.3765-1.4398 2.27-3.1483 2.9496-4.9697.5072-1.3568.9073-2.7336.9177-4.19z" fill="#fcfdfe"/><path d="m76.9817 54.2237h-5.6751c.0656-.199.1139-.3682.1794-.5341 1.1833-2.936 2.3943-5.8654 3.55-8.8147.821-2.0934 1.5697-4.2099 2.3424-6.3199.1035-.2787.1794-.5739.2243-.8659.1035-.6701-.0897-.9554-.7555-1.191-.0897-.0298-.1794-.0531-.3278-.0962.1346-.3881.2622-.7531.3933-1.1279.1104-.0133.2036-.0332.3002-.0332 3.9018.0033 7.8036 0 11.7054.0199 1.0108.0033 2.0148.1227 2.9876.3948.3692.1028.7418.2289 1.0867.3948 1.3076.6303 1.8216 1.682 1.5283 3.0587-.3622 1.6953-1.4075 2.9195-2.8737 3.8451-1.342.8492-2.8393 1.3668-4.3607 1.818-.1863.0564-.3691.1094-.552.1692-.0344.0099-.0621.0431-.131.0928 1.2971 3.2048 3.0911 6.174 4.9712 9.1764h-6.7721c-.0724-.1394-.169-.3152-.2518-.4977-1.1143-2.4019-2.2149-4.8071-3.3464-7.2023-.2312-.4877-.314-.9489-.0966-1.473.6072-.2256 1.2419-.4512 1.8664-.7 1.1695-.4645 2.2665-1.0583 3.2463-1.8379 1.1178-.8891 1.9078-2.0038 2.4287-3.2977.5693-1.4232-.138-2.6706-1.7042-2.9227-.6244-.0996-1.273-.0564-1.9112-.0531-.5313.0033-.9143.2853-1.173.7133-.2036.3384-.4174.6767-.5692 1.0384-.9798 2.372-1.9734 4.7407-2.9014 7.1327-1.0867 2.8132-2.1113 5.6497-3.1601 8.4763-.0759.209-.1587.4146-.2449.6336z" fill="#fcfdfe"/><path d="m119.608 54.3265h-5.858c-.559-2.0303-1.117-4.0573-1.68-6.0943h-7.286c-.097.1194-.203.2488-.303.3815-1.36 1.7716-2.726 3.5365-4.068 5.318-.245.3252-.5036.4413-.9141.4346-1.3972-.0232-2.7945-.0099-4.1917-.0099-.1863 0-.376 0-.6451 0 .1277-.2024.1967-.3251.2829-.4379 4.1709-5.4308 8.352-10.855 12.509-16.2958 1.36-1.7782 3.209-2.435 5.413-2.372.307.0099.618.073.914.1526.618.1692 1.022.5242 1.191 1.1678 1.104 4.2663 2.235 8.526 3.356 12.7891.428 1.6256.842 3.2512 1.28 4.9597zm-7.921-8.0019c-.238-1.0516-.483-2.0668-.697-3.0853-.21-1.0118-.393-2.027-.593-3.072-.718.6734-4.478 5.6995-4.619 6.1606.452.1327 5.399.1394 5.909-.0066z" fill="#fcfdfe"/><path d="m43.8457 40.0977h-5.7338c-.0793-.1925-.1655-.3948-.2414-.6038-.4002-1.0716-1.1799-1.6621-2.3598-1.8015-2.4942-.2952-4.5504.4877-6.1408 2.3422-.4657.5408-.8694 1.1545-1.1867 1.7849-1.1144 2.2161-1.7077 4.5549-1.618 7.0298.0172.4943.1207 1.0052.2829 1.4763.3587 1.0716 1.1419 1.7517 2.27 2.0602 2.1803.5972 4.5021-.2322 5.7578-2.0668.1277-.1858.2484-.3749.3726-.564h6.1098c-.0863.1725-.1415.3052-.2174.4246-.8659 1.3702-2.1285 2.3057-3.612 2.9825-1.4351.6536-2.9565 1.0119-4.5228 1.1976-1.8767.2223-3.7535.2588-5.6233-.0763-2.0561-.3682-3.9156-1.1312-5.3059-2.6805-2.0631-2.2924-2.5495-4.9199-1.6353-7.7996 1.0177-3.2146 3.2119-5.444 6.3133-6.8805 2.9807-1.3801 6.127-1.9872 9.4355-1.6555 1.5766.1593 3.0876.5474 4.4676 1.3304 1.3385.7597 2.3666 1.7981 3.0704 3.135.0345.0664.069.1327.0966.2024.0138.0299.0103.0697.0207.1659z" fill="#fcfdfe"/><path d="m122.05 54.3398c.08-.2156.142-.3882.211-.5573 1.732-4.3891 3.47-8.7782 5.192-13.1707.238-.6071.4-1.244.59-1.8711.041-.1426.062-.2919.079-.4412.107-.909-.031-1.6952-1.142-1.9971.138-.3948.259-.7432.39-1.1214h8.049c-1.849 5.2583-3.699 10.4834-5.703 15.7318h9.891c-.407 1.181-.787 2.2891-1.18 3.4237h-16.38z" fill="#fcfdfe"/><path d="m158.868 39.3512c-.18.5274-.373 1.0549-.535 1.5857-.073.2323-.19.3915-.428.4844-.5.1924-.987.4246-1.494.5905-.811.2621-1.635.2123-2.453.0067-.3-.0763-.597-.156-.893-.2356-1.601-.7232-3.226-.7099-4.84-.0763-.68.2654-1.322.6138-1.984.9256-.131.063-.262.1227-.497.2289.107-.3218.183-.5474.259-.773.214-.6568.424-1.3104.638-1.9673.211-.5507.421-1.0981.631-1.6488.107-.2588.359-.3152.597-.3915 1.194-.3715 2.419-.5142 3.671-.5042.99.0099 1.977-.0398 2.95-.2621.269-.0597.558-.0465.838-.0664.659.146 1.321.2223 2.001.1493.914-.0995 1.677-.5009 2.349-1.0815.073.0166.149.0299.224.0465-.106.3085-.217.6137-.324.9222l-.027.0166.017.0266c-.076.2189-.152.4379-.228.6568l-.034.0133.024.0265c-.031.0896-.062.1759-.093.2654l-.028.02.014.0298c-.111.3185-.224.637-.335.9555l-.031.0232.014.0332z" fill="#fdca06"/><path d="m146.641 40.1208c-.214.6569-.424 1.3138-.638 1.9673-.072.2256-.148.4512-.259.773.235-.1094.366-.1692.497-.2289.659-.3118 1.304-.6568 1.984-.9256 1.618-.6369 3.239-.6469 4.84.0763-.749.292-1.497.5839-2.308.8991.417.5905.852 1.1412 1.439 1.5327.579.3848 1.214.6934 1.863 1.055-.628.262-1.287.4014-1.953.3782-.928-.0332-1.867-.073-2.77-.2588-2.098-.4246-4.051-.0697-5.903.8825-.749.3848-1.446.8692-2.17 1.2971-.152.0896-.255.3119-.493.1924l.006.0067c.59-1.7086 1.191-3.4138 1.77-5.1223.1-.2986.252-.5209.542-.6801.904-.4943 1.797-1.0152 2.701-1.5062.266-.1426.569-.2289.852-.3384z" fill="#ec424c"/><g fill="#70bf44"><path d="m155.329 37.2478c-.28.0199-.57.0067-.839.0664-.973.2223-1.959.272-2.949.2621-1.253-.01-2.477.1327-3.671.5042-.238.073-.49.1294-.597.3915-.217-.1858-.414-.0232-.583.0664-.9.4744-1.79.962-2.684 1.4497-.165.0896-.324.1891-.559.3251.024-.1725.021-.2786.055-.3682.49-1.4133.987-2.8265 1.47-4.2431.076-.2256.19-.3915.418-.501 1.424-.6801 2.904-1.1711 4.519-1.0483.728.0531 1.449.2256 2.17.3682.548.1095 1.087.2754 1.635.3849 1.566.3085 3.039-.0133 4.461-.6436.224-.0996.466-.156.7-.2323l-.007-.0066c-.841 1.1943-1.866 2.1995-3.208 2.8829-.138.0697-.424.0498-.328.3417z"/><path d="m159.9 36.3621c-.076-.0166-.148-.0299-.224-.0465.086-.0796.172-.1559.259-.2355.024.0166.044.0365.069.0531-.035.0763-.069.1526-.104.2289z"/><path d="m158.872 34.0299.004-.0299-.011.0232z"/><path d="m159.562 37.3275-.017-.0265.028-.0166.017.0265z"/><path d="m159.323 38.0242-.024-.0266.035-.0132z"/><path d="m159.217 38.3393-.014-.0298.028-.0199.017.0298z"/><path d="m158.869 39.3512-.014-.0332.028-.0232.014.0332z"/></g><path d="m140.771 47.7611.035.0332s-.025-.0232-.028-.0232-.01-.01-.01-.01z" fill="#ec424c"/></g></svg>